<?xml version="1.0" encoding="utf-8"?>
<!-- Generator: Adobe Illustrator 23.0.0, SVG Export Plug-In . SVG Version: 6.00 Build 0)  -->
<svg version="1.1" id="Layer_1" xmlns="http://www.w3.org/2000/svg" xmlns:xlink="http://www.w3.org/1999/xlink" x="0px" y="0px"
	 viewBox="0 0 585 160" style="enable-background:new 0 0 585 160;" xml:space="preserve">
<style type="text/css">
	.st0{fill:#FFFFFF;}
	.st1{fill:#FF4100;}
</style>
<polygon class="st0" points="192.1,99.2 192.1,103.1 162.4,103.1 162.4,61.1 191.1,61.1 191.1,64.9 166.8,64.9 166.8,79.9 
	188.5,79.9 188.5,83.6 166.8,83.6 166.8,99.2 "/>
<path class="st1" d="M241.7,61.1V103h-3.6l-27-34v34h-4.4V61.1h3.6l27,34v-34H241.7z"/>
<polygon class="st0" points="267.7,64.9 253,64.9 253,61.1 286.9,61.1 286.9,64.9 272.1,64.9 272.1,103.1 267.7,103.1 "/>
<polygon class="st0" points="333.2,61.1 333.2,103.1 328.8,103.1 328.8,83.7 302.6,83.7 302.6,103.1 298.1,103.1 298.1,61.1 
	302.6,61.1 302.6,79.8 328.8,79.8 328.8,61.1 "/>
<polygon class="st0" points="380.7,99.2 380.7,103.1 351,103.1 351,61.1 379.8,61.1 379.8,64.9 355.5,64.9 355.5,79.9 377.2,79.9 
	377.2,83.6 355.5,83.6 355.5,99.2 "/>
<path class="st0" d="M424,103.1l-9.6-13.5c-1.1,0.1-2.2,0.2-3.4,0.2h-11.3v13.3h-4.4v-42H411c5.4,0,9.5,1.3,12.6,3.8
	c3,2.6,4.5,6.1,4.5,10.5c0,3.3-0.8,6-2.5,8.3s-4,3.9-7.1,4.9l10.3,14.4L424,103.1L424,103.1z M420.4,83.2c2.2-1.8,3.3-4.4,3.3-7.7
	c0-3.4-1.1-6-3.3-7.8c-2.2-1.8-5.4-2.7-9.5-2.7h-11.1v21h11.1C415,86,418.2,85.1,420.4,83.2z"/>
<path class="st0" d="M469.1,91.8h-23.4l-5,11.2h-4.6l19.2-41.9h4.4l19.2,41.9h-4.7L469.1,91.8z M467.5,88.3l-10.1-22.5l-10.1,22.5
	H467.5z"/>
<path class="st0" d="M518.3,64.9c3,2.6,4.5,6.1,4.5,10.5s-1.5,8-4.5,10.5s-7.2,3.8-12.6,3.8h-11.3V103H490V61.1h15.7
	C511,61.1,515.2,62.4,518.3,64.9z M515.1,83.2c2.2-1.8,3.3-4.4,3.3-7.7c0-3.4-1.1-6-3.3-7.8s-5.4-2.7-9.5-2.7h-11.1v21h11.1
	C509.7,85.9,512.9,85,515.1,83.2z"/>
<polygon class="st0" points="551,88.6 551,103.1 546.6,103.1 546.6,88.6 529.8,61.1 534.6,61.1 548.9,84.7 563.3,61.1 567.8,61.1 
	"/>
<path class="st1" d="M126.8,54.3c-0.1-0.1-0.3-0.2-0.4-0.1c-2.3,1.6-4.4,3.6-6.3,5.6s-3.8,4.2-5.5,6.4c-3.5,4.4-6.8,8.9-10,13.6
	c-0.8,1.2-1.6,2.3-2.3,3.6c-0.4,0.6-0.7,1.2-1.1,1.7l-1.1,1.7c-1.6,2.3-3.2,4.5-4.8,6.8c-3.2,4.5-6.4,9.1-9.7,13.5
	c-3.2,4.5-6.5,9-9.8,13.4c-0.8,1.1-1.7,2.2-2.5,3.2s-1.6,2.1-2.5,3.1s-1.7,2-2.6,3c-0.6,0.7-0.6,0.7-0.8,0.8
	c-0.2,0.1-0.3,0.2-0.5,0.2c-0.3,0.1-0.7,0.1-1.1,0s-0.7-0.3-0.9-0.5s-0.3-0.5-0.4-0.8c0-0.1,0-0.1,0-0.1v-0.1l-0.1-1l-0.1-2.1
	c-0.3-5.5-0.8-11.1-1.2-16.6l-2.8-33.2L60,72.3l-0.1-1.1c-0.1-0.7-0.2-1.5-0.5-2.2c-0.5-1.5-1.5-2.9-2.7-4c-2.4-2.1-5.7-2.8-8.7-2
	c-1.5,0.4-3,1.3-4.1,2.4c-0.6,0.6-1,1.2-1.4,1.8l-0.3,0.5l0.1,0.3l-0.2,0.5c-1.2,2.5-2.4,5-3.6,7.5c-1.2,2.5-2.4,5.1-3.5,7.6
	c-4.6,10.2-8.7,20.8-12.5,31.3c-3.7,10.6-7.1,21.2-10.2,31.9c0,0.1,0,0.3,0.1,0.3c0.1,0.1,0.3,0,0.4-0.1
	c4.7-10.1,9.4-20.2,14.4-30.1c2.5-5,5-9.9,7.6-14.8s5.3-9.7,8.1-14.4c1.4-2.4,2.8-4.8,4.2-7.2c0.9-1.6,1.8-3.2,2.7-4.8l0.1,1.6
	l2.1,33.4c0.4,5.6,0.8,11.1,1.3,16.7l0.2,2.1l0.1,1.1l0.1,1l0.2,0.9c0.6,2.4,2,4.6,3.8,6.2c3.7,3.3,9,4.2,13.6,2.3
	c1.1-0.5,2.2-1.1,3.1-1.9c0.9-0.7,1.8-1.8,2.1-2.2c0.9-1.1,1.8-2.2,2.7-3.4c0.9-1.1,1.8-2.3,2.6-3.6c0.8-1.2,1.6-2.4,2.4-3.6
	c3.1-4.7,6.1-9.4,9-14.2c2.9-4.8,5.7-9.6,8.5-14.4c1.4-2.4,2.8-4.9,4.1-7.4l1-1.9c0.3-0.7,0.7-1.3,1-1.9l1.8-3.7
	c2.5-4.9,5.2-9.8,8-14.5c1.4-2.4,2.9-4.7,4.4-7c1.6-2.3,3.2-4.5,5.1-6.5l0,0C126.9,54.5,126.9,54.4,126.8,54.3z M51.4,72.5
	L51.4,72.5L51.4,72.5C51.4,72.4,51.4,72.5,51.4,72.5z"/>
<path class="st1" d="M62.4,24.5c0.8,1.4,1.2,2.1,1.3,3.7c0.2,1.6,0.1,3.4-0.4,5c-0.9,3.3-3.3,6.3-6.5,8.1c-3.2,1.8-7.1,2.2-10.7,1.2
	c-1.8-0.5-3.5-1.4-4.9-2.5c-1.5-1.2-2.7-2.6-3.6-4.2c-1.9-3.3-2.4-7.2-1.5-10.8s3.3-6.7,6.4-8.5c3.1-1.9,6.9-2.4,10.2-1.5
	s5.6,2.6,7.1,5.4v0.1h-0.1c-1.2-1-1.9-1.4-3.2-2s-2.8-0.9-4.2-1c-2.8-0.2-5.5,0.7-7.6,2.3c-2.1,1.6-3.5,3.9-4,6.3
	c0,0.3-0.1,0.6-0.1,0.9l0.1,1v0.9c0,0.3,0.1,0.6,0.1,0.9c0.2,0.9,0.4,1.8,0.8,2.6c0.1,0.3,0.2-5,6.1-6.7c-5.4,2.7-5.4,6.7-3.8,9.2
	c1.1,1.8,3.3,2.8,3.8,3c2.3,0.8,5,0.8,7.4-0.2s4.5-2.9,5.7-5.3s1.9-4.7,1.2-7.7c0-0.1,0-0.2,0.1-0.2C62.3,24.4,62.4,24.5,62.4,24.5z
	"/>
</svg>
