<?xml version="1.0" encoding="utf-8"?>
<!-- Generator: Adobe Illustrator 23.0.0, SVG Export Plug-In . SVG Version: 6.00 Build 0)  -->
<svg version="1.1" id="Layer_1" xmlns="http://www.w3.org/2000/svg" xmlns:xlink="http://www.w3.org/1999/xlink" x="0px" y="0px"
	 viewBox="0 0 1920 1080" style="enable-background:new 0 0 1920 1080;" xml:space="preserve">
<style type="text/css">
  @-webkit-keyframes dash {
    to {
      stroke-dashoffset: 1000;
    }
  }

  @-moz-keyframes dash {
    to {
      stroke-dashoffset: 1000;
    }
  }

	@-ms-keyframes dash {
    to {
      stroke-dashoffset: 1000;
    }
  }

  @-o-keyframes dash {
    to {
      stroke-dashoffset: 1000;
    }
  }

  @keyframes dash {
    to {
      stroke-dashoffset: 1000;
    }
  }

	.st0{
    opacity: 0.5;
    fill: none;
    stroke: #FFFFFF;
    stroke-miterlimit: 10;
    enable-background: new;
    stroke-dasharray: 200;
    -webkit-animation: dash 20s linear infinite;
    -moz-animation: dash 20s linear infinite;
		-ms-animation: dash 20s linear infinite;
    -o-animation: dash 20s linear infinite;
    animation: dash 20s linear infinite;
  }
</style>
<path class="st0" d="M1207.2,293.1c-6-1.4-12-2.5-18.1-3.1c-50.4,2.3-88.9,20.8-115.1,39.1c-2.4,1.7-4.7,3.4-7,5.1
	c-4.4,4.5-8.5,9.3-12.2,14.3c6.6-5.8,13.6-11.5,21.2-16.7C1104.7,311.6,1148.6,291.2,1207.2,293.1z"/>
<path class="st0" d="M1250.6,309c-3.4-1.7-6.9-3.3-10.4-4.9c-72.7-9.6-125.9,14.2-159.3,37.9c-19.2,13.6-35.2,29.4-48,45.3
	c-1.3,3.3-2.6,6.7-3.7,10.1c13.6-18.4,31.4-37,53.6-52.8C1117.4,320.2,1173.4,295.6,1250.6,309L1250.6,309z"/>
<path class="st0" d="M1278.2,325.2c-2.6-1.8-5.2-3.5-7.9-5.1c-127.7-27.1-210.8,43.7-248.6,106.8c-0.5,3-1,6-1.5,9
	C1056.1,370.7,1142.3,292.2,1278.2,325.2z"/>
<path class="st0" d="M1299,340.6c-2.2-1.7-4.3-3.5-6.5-5.1c-33.2-8.6-65.3-11.1-95.5-7.6c-28.9,3.4-56.3,12.3-81.4,26.6
	c-27.8,15.8-53,38.4-73,65.4c-9.8,13.2-18.1,27.2-24.5,41.1c-0.1,2.9-0.2,5.7-0.2,8.6c16.3-39.2,50.5-84.5,99.3-112.2
	C1170.4,327.1,1231.6,321.5,1299,340.6z"/>
<path class="st0" d="M1124.1,370.2c25.3-14.5,53-23.6,82.3-26.9c33.2-3.7,68.7-0.1,105.5,10.7c0.7,0.2,1.5-0.1,1.8-0.7
	c-1.2-1-2.3-2.1-3.4-3.1c-36.3-10.4-71.4-13.8-104.2-10.1c-29.8,3.4-57.9,12.5-83.6,27.3c-28.4,16.3-54,39.7-74.1,67.7
	c-12.8,17.9-23.1,37.2-29.9,55.9c0.2,2.8,0.4,5.5,0.6,8.3c6.5-20.6,17.6-42.3,31.9-62.2C1070.8,409.3,1096.1,386.2,1124.1,370.2
	L1124.1,370.2z"/>
<path class="st0" d="M1131.1,382.9c25.9-15,54.3-24.3,84.4-27.5c34.1-3.7,70.6,0.3,108.5,11.8c0.9,0.3,1.8-0.2,2-1.1
	c0.1-0.4,0.1-0.7,0-1c-0.3-0.3-0.6-0.6-1-1c0,0-0.1,0-0.1,0c-38.4-11.7-75.3-15.7-109.8-12c-30.6,3.3-59.4,12.7-85.7,27.9
	c-60.9,35.3-95.5,93.9-108.3,137.4c0.4,2.6,0.8,5.3,1.2,7.9C1033.2,482,1067.7,419.7,1131.1,382.9L1131.1,382.9z"/>
<path class="st0" d="M1138.2,395.6c26.4-15.5,55.5-24.9,86.5-28.1c34.9-3.6,72.4,0.7,111.5,12.9c0.9,0.3,1.8-0.2,2-1.1
	c0.3-0.9-0.2-1.8-1.1-2c-39.5-12.3-77.4-16.7-112.8-13.1c-31.4,3.3-61,12.9-87.8,28.5c-64.7,37.8-99.9,102.1-111.2,148.1
	c0.5,2.3,1,4.5,1.5,6.8c0.2-0.2,0.4-0.5,0.5-0.8C1037,501.3,1071.9,434.4,1138.2,395.6L1138.2,395.6z"/>
<path class="st0" d="M1032.9,565.5c9.5-47.6,44.7-117.4,112.5-157.3c27-15.9,56.8-25.5,88.5-28.6c35.8-3.5,74.3,1.2,114.4,14
	c0.8,0.3,1.8-0.2,2-1c0.1-0.2,0.1-0.3,0.1-0.5c-0.4-0.5-0.9-1.1-1.4-1.6c-40.5-12.9-79.3-17.7-115.5-14.1
	c-32.2,3.2-62.5,13-89.9,29.1c-67.3,39.6-102.9,108.1-113.4,156.3c0.4,1.7,0.9,3.3,1.4,5c0.1,0,0.2,0,0.3-0.1
	C1032.5,566.4,1032.8,566,1032.9,565.5L1032.9,565.5z"/>
<path class="st0" d="M1038.5,584.2c9.3-49.7,44.8-122.3,114.3-163.4c27.5-16.3,58-26.1,90.5-29.2c36.6-3.5,76.1,1.7,117.3,15.2
	c0.5,0.2,1,0.1,1.4-0.2c-0.9-1.2-1.8-2.4-2.8-3.6c-40.8-13.1-79.9-18-116.3-14.6c-33,3.1-64,13.1-91.9,29.6
	c-68.9,40.8-104.8,112.1-115.1,162.3c0.5,1.7,1.1,3.3,1.7,5c0,0,0,0,0,0C1038.1,585.1,1038.4,584.7,1038.5,584.2z"/>
<path class="st0" d="M1160.1,433.4c28.1-16.7,59.2-26.7,92.5-29.6c37.1-3.3,77.1,2,118.9,15.9c-1.1-1.5-2.1-3-3.2-4.4
	c-40.7-13-79.8-17.9-116-14.7c-33.8,3-65.4,13.1-93.9,30.1c-31.6,18.8-59.5,46.3-80.8,79.6c-17.3,27.2-29.9,57.9-35.8,87.1
	c0.7,1.9,1.4,3.8,2.2,5.8c0-0.1,0-0.1,0.1-0.2C1053.2,551.1,1089.1,475.6,1160.1,433.4L1160.1,433.4z"/>
<path class="st0" d="M1086.4,526.9c21.2-34,49.3-62,81.1-81c28.6-17.1,60.4-27.2,94.5-30.1c36.7-3.1,76.2,2.2,117.6,15.6
	c-1-1.5-1.9-2.9-2.9-4.4c-40.4-12.7-79-17.6-115-14.5c-34.6,2.9-66.9,13.2-95.9,30.5c-32.3,19.3-60.7,47.6-82.2,82.1
	c-17.1,27.3-29.5,58.2-35.6,87.8c0.7,1.8,1.5,3.6,2.3,5.3C1055.9,587.7,1068.6,555.3,1086.4,526.9L1086.4,526.9z"/>
<path class="st0" d="M1097,540.1c20.4-36.1,46.7-63.9,78.3-82.5c57.8-34.1,130.7-36.3,216.5-6.6c-0.9-1.5-1.7-2.9-2.6-4.3
	c-85.2-28.7-157.7-26-215.6,8.2c-32.1,18.9-58.8,47.1-79.4,83.8c-16.2,28.7-28.3,62.5-35.4,98.3c0.8,1.6,1.6,3.2,2.4,4.8
	C1068.1,604.6,1080.4,569.6,1097,540.1L1097,540.1z"/>
<path class="st0" d="M1106.4,556.1c19.8-41.1,44.8-69,78.7-88c30.1-16.8,63.8-23,106-19.5c27.7,2.3,59.1,7.6,97.6,14.9
	c1.9,0.4,3.8,0.7,5.8,1c1.9,0.3,3.8,0.6,5.6,1c-0.7-1.2-1.3-2.5-2-3.7c-1-0.2-2-0.3-3-0.5c-1.9-0.3-3.8-0.6-5.7-1
	c-38.7-7.3-70.2-12.6-98-14.9c-42.8-3.6-77.1,2.7-107.8,19.9c-34.6,19.3-60,47.7-80.1,89.4c-15.3,31.9-25.7,67.4-34.5,101.8
	c0.8,1.4,1.5,2.8,2.3,4.1C1080.2,625.4,1090.7,588.8,1106.4,556.1z"/>
<path class="st0" d="M1092,644.4c6.7-23,14.4-49,24.3-73.1c13-31.6,32.3-67.1,76.7-91.4c38-20.7,74.1-18.4,107.4-12.9l5.5,0.9
	c28.6,4.8,60.9,10.1,94.1,12.8c2.7,0.2,5.2,0.3,7.7,0.3c0.2,0,0.4,0,0.6,0c-0.6-1.1-1.1-2.2-1.7-3.3c-2.1,0-4.3-0.1-6.4-0.3
	c-33-2.6-65.3-8-93.8-12.8l-5.5-0.9c-33.9-5.6-70.7-8-109.5,13.2c-45.3,24.8-64.9,60.9-78.1,93c-9.9,24.2-17.6,50.3-24.4,73.4
	c-3.2,11-6.3,21.5-9.4,31c0.7,1.2,1.5,2.4,2.2,3.6C1085.1,667.8,1088.5,656.4,1092,644.4z"/>
<path class="st0" d="M1110,639.6c4.9-17.5,9.9-35.6,16.1-53.1c11.8-34.1,27.4-69.5,74.6-94.9c39.6-21.2,74.1-15.1,108.9-6.3
	c19.9,5,59.5,13.3,101.4,12.5c1.8,0,3.5-0.1,5.2-0.3c-0.5-1-0.9-2.1-1.4-3.1c-1.3,0.1-2.5,0.2-3.8,0.2
	c-41.5,0.8-80.8-7.5-100.5-12.4c-34.9-8.8-69.5-15-109.3,5.5c-0.7,0.3-1.3,0.7-2,1c-48.3,25.9-64.6,63.5-76.2,96.7
	c-6.1,17.7-11.2,35.8-16.1,53.3c-5.4,19.3-10.6,37.8-16.4,52.6c0.7,1.1,1.5,2.1,2.2,3.2C1098.9,679.3,1104.3,659.9,1110,639.6z"/>
<path class="st0" d="M1125.2,642.2c3.3-13.3,6.8-27.1,10.7-40.5c11.2-38.7,24.4-72.9,72.6-98.3c43.2-22.8,78.9-10.5,110.4,0.3
	c31.3,10.8,69.9,15,103.2,11.4c0.5,0,1-0.1,1.5-0.2c-0.4-1-0.8-2.1-1.3-3.1c-0.2,0-0.4,0-0.6,0.1c-32.8,3.6-70.9-0.6-101.8-11.2
	c-32.1-11-68.6-23.5-113-0.1c-49.4,26.1-62.8,60.8-74.2,100.3c-3.9,13.5-7.3,27.3-10.7,40.7c-6.3,25-12.2,48.8-20,65.8
	c0.7,1,1.5,1.9,2.3,2.9C1112.6,692.7,1118.7,668.1,1125.2,642.2L1125.2,642.2z"/>
<path class="st0" d="M1139,647.2c2.1-9.9,4.2-20.4,6.6-30.5c8.6-36.4,17.2-74.5,70.5-102c0.2-0.1,0.3-0.2,0.4-0.2
	c44-22.7,76.6-8.1,108.1,5.8l3.5,1.6c29,12.7,67.9,16.8,102.2,10.8c-0.3-1-0.7-2-1.1-3c-33.6,5.8-71.5,1.8-99.7-10.6l-3.5-1.6
	c-30.7-13.5-65.4-28.9-110.8-5.5c-0.2,0.1-0.3,0.2-0.4,0.2c-54.6,28.1-63.5,66.8-72.2,104c-2.4,10.1-4.6,20.4-6.7,30.3
	c-6.3,29.3-12.3,57.4-21.3,76c0.8,0.9,1.6,1.8,2.3,2.7C1126.3,706.1,1132.5,677.3,1139,647.2L1139,647.2z"/>
<path class="st0" d="M1339,537.5c-2-1.1-4.1-2.3-6.1-3.4c-29.4-16.2-62.9-34.7-110.4-10.2c-0.1,0-0.1,0.1-0.2,0.1
	c-55.6,28.7-62.7,67.3-69.5,104.6l-0.5,2.9c-1.2,6.7-2.4,13.6-3.6,20.3c-5.8,33.1-11.4,64.8-21.1,84.9c0.8,0.8,1.6,1.6,2.4,2.4
	c10.2-20.5,15.9-52.9,21.9-86.7c1.2-6.6,2.4-13.5,3.6-20.2l0.7-2.7c7-38.2,13.8-74,67.9-101.9c0.1,0,0.1-0.1,0.2-0.1
	c46-23.7,78.4-6,107.2,9.8c2.1,1.1,4,2.1,6,3.2c26.5,14.3,64.4,18.4,98.8,11c-0.3-1-0.6-2.1-0.9-3.2
	C1401.8,555.4,1364.8,551.4,1339,537.5L1339,537.5z"/>
<path class="st0" d="M1170.8,695.5c1.7-14.4,6.7-58,18.9-61.7c3.4-1,7.5,1.3,12.1,6.9c20.4,24.5,24.1,84.6-17,140.1
	c1,0.5,1.9,1,2.9,1.6c41.8-56.8,37.6-118.5,16.6-143.8c-5.6-6.7-10.8-9.4-15.6-7.9c-9.8,2.9-16.3,22.8-21.2,64.4
	c-2.6,22.5-9.9,44.3-19.8,60.1c0.8,0.7,1.7,1.4,2.5,2.1C1160.5,741.1,1168.1,718.6,1170.8,695.5L1170.8,695.5z"/>
<path class="st0" d="M1231,705.5c3-29.8-3.6-57.6-17.6-74.4c-11.1-13.3-21.4-13.7-28.1-11.7c-1.3,0.4-2.6,0.9-3.8,1.5
	c-15.4,7.9-21.3,33.8-25.8,72.9c-2,17.1-7.8,38-17,53.6c0.8,0.7,1.6,1.5,2.4,2.2c9.7-16.2,15.7-37.8,17.8-55.4
	c4.3-37,10-63.2,24.1-70.4c1-0.5,2.1-1,3.2-1.3c5.8-1.7,14.7-1.3,24.7,10.7c13.4,16.1,19.7,43,16.8,72c-2.1,20.5-9.5,50.1-32.3,81.3
	c1,0.5,2,1,3,1.4C1221.4,756.2,1228.9,726.3,1231,705.5L1231,705.5z"/>
<path class="st0" d="M1207.3,703.1c2.2-22.4-2.4-48.7-13-52c-1.1-0.3-2.2-0.3-3.3,0.3c-6.3,3.3-9.2,23.9-11.6,44.7l-0.1,0.5
	c-2.9,25-11,48.8-22.2,66.3c0.9,0.7,1.7,1.3,2.6,1.9c11.5-17.9,19.9-42.2,22.8-67.8l0.1-0.5c1.3-10.8,4.6-39.5,9.9-42.2
	c0.3-0.1,0.5-0.2,0.8-0.1c6.3,2,13.5,21.5,10.8,48.6c-1.8,18-8.5,44.2-29.6,72.1c0.9,0.6,1.8,1.1,2.8,1.7
	C1198.6,748.1,1205.5,721.4,1207.3,703.1L1207.3,703.1z"/>
<path class="st0" d="M1195.2,681.8c-0.1-0.9-0.9-1.5-1.8-1.4c-0.9,0.1-1.5,0.9-1.4,1.8c0.1,0.5,4.7,41.6-26.5,86.6
	c0.9,0.6,1.8,1.2,2.7,1.8C1200,724.6,1195.2,682.3,1195.2,681.8L1195.2,681.8z M1253.8,729.6c4.3-23.3,4.9-60.8-1.1-77.4
	c-1-2.6-1.8-5.1-2.6-7.6c-4.3-12.7-8.1-23.7-22.1-34.7c-9.2-7.2-21.3-18-20.7-29.6c0.4-7.3,6-14.3,16.6-20.9
	c31.6-19.5,61.3-18.5,102.4,3.2c38.8,20.5,64.1,27.3,116.6,15.4c-0.2-1.1-0.4-2.1-0.7-3.2c-51.5,11.7-76.3,5-114.4-15
	c-41.8-22-73.4-23-105.7-3.1c-11.6,7.1-17.7,15-18.1,23.5c-0.7,13.1,12.2,24.7,22,32.4c13.3,10.4,16.7,20.4,21,33.1
	c0.8,2.5,1.7,5,2.7,7.6c5.9,16.1,5.3,52.8,1,75.7c-4.1,22-17.3,49.3-28.3,68.1c1.1,0.3,2.2,0.7,3.3,1
	C1236.7,779,1249.6,752,1253.8,729.6L1253.8,729.6z"/>
<path class="st0" d="M1323.3,572.7c-31.9-16.9-58.2-25.5-82.2-13.1c-0.4,0.2-1.1,0.5-1.9,0.9c-1.4,0.6-3.2,1.4-5.2,2.5
	c-12.8,6.6-17.8,14.6-15.1,23.7c1.2,3.8,4.5,6.3,8.7,9.6c9.3,7.2,23.2,18,33.2,52.9c5.3,18.7,10.8,56.7,4.2,85
	c-5.2,22.4-18.4,47.6-30.1,66.4c1.1,0.3,2.2,0.5,3.3,0.8c11.7-19,24.7-44,29.9-66.4c7.3-31.2,0.4-70.3-4.3-86.7
	c-10.2-36-25.3-47.6-34.3-54.6c-3.9-3-6.7-5.2-7.6-8c-2.3-7.5,2.1-14,13.4-19.9c1.9-1,3.7-1.8,5.1-2.4c0.9-0.4,1.6-0.7,2.1-1
	c22.8-11.8,48.2-3.3,79.2,13.1c43.4,22.9,70.7,26.2,123.1,14.2c-0.2-1.1-0.3-2.1-0.5-3.2C1392.7,598.4,1365.9,595.1,1323.3,572.7
	L1323.3,572.7z"/>
<path class="st0" d="M1329.9,546.6c-38.4-20.3-68-28.3-105.2-9.1l-0.7,0.4c-0.4,0.2-1,0.5-1.6,0.8c-14.1,7.3-37.7,22.9-36.8,46
	c0.4,11.4,10.8,19.2,20.9,26.7c4.6,3.4,8.9,6.7,12.2,10.1c10.3,10.8,14.2,20.6,19.8,35.8c5.6,15.2,5.7,43.4,0.4,70.1
	c-4.9,24.3-17.4,49.1-27.8,65.7c1,0.4,2.1,0.8,3.1,1.2c10.4-16.9,22.9-41.8,27.8-66.2c5.5-27.3,5.3-56.1-0.5-71.8
	c-4.9-13.5-9.2-25.2-20.5-37c-3.5-3.7-8.1-7.1-12.6-10.5c-9.5-7.1-19.3-14.4-19.6-24.2c-0.8-21.3,21.6-36.1,35.1-43
	c0.6-0.3,1.2-0.6,1.6-0.8l0.8-0.4c36.1-18.6,63.8-11.2,102.2,9.1c38.3,20.2,64.1,27.7,111.9,16.9c-0.3-1-0.5-2.1-0.8-3.2
	C1392.7,573.7,1367.5,566.4,1329.9,546.6L1329.9,546.6z"/>
<path class="st0" d="M1359.9,660.4c-18-13.8-45-26.6-62.4-17.6c-0.2,0.1-0.4,0.2-0.6,0.3c-12,6.6-17,22.4-14.8,46.9
	c1.7,18.4,5.1,55.8-32.3,113.2c1.2,0.2,2.4,0.3,3.7,0.5c14.8-22.4,36.6-61.3,31.8-114c-2.1-23.1,2.3-37.8,13.1-43.7
	c0.2-0.1,0.3-0.2,0.5-0.3c16.1-8.3,41.7,4.1,58.9,17.3c27.6,21.2,55.7,31.2,78.1,33.3c0.4-1,0.8-2.1,1.2-3.1
	C1415.2,691.3,1387.4,681.5,1359.9,660.4L1359.9,660.4z"/>
<path class="st0" d="M1356.4,675.6c-8.9-6.8-17.4-13.1-25.8-17.4c-10.5-5.4-18.8-6-24.8-2c-10.8,7.3-9.7,27.6-9.2,33.7
	c1.4,14.2-1,34-6.9,58.7c-4.2,17.5-14.2,38.9-23.7,56.2c1.2,0,2.4,0.1,3.6,0.1c9.4-17.3,19-38.2,23.2-55.5c6.1-25,8.4-45.2,7-59.8
	c-1.1-11.5,0.4-25.6,7.8-30.7c4.9-3.3,12.1-2.6,21.5,2.2c8.2,4.2,16.5,10.5,25.3,17.1c19.4,14.7,42.7,32.2,74.5,33.8
	c0.5-1,1.1-2.1,1.6-3.2C1399.2,707.9,1376.7,691,1356.4,675.6L1356.4,675.6z"/>
<path class="st0" d="M1349.5,688.8c-15-14.7-24.7-23.3-33.6-17.3c-6,4.1-5.6,16.5-5.2,30.9c0.2,5.6,0.3,11.5,0.1,17
	c-1.5,40.3-17.5,68.8-27.4,85.2c1.3-0.1,2.6-0.2,4-0.3c10.1-16.9,25.3-45.2,26.7-84.8c0.2-5.7,0-11.6-0.1-17.3
	c-0.4-12.9-0.8-25.1,3.7-28.1c5-3.4,10.2-1.8,29.5,17c26.8,26.2,52.7,32.9,73.8,34.4c0.7-1,1.3-2.1,2-3.1
	C1402.2,721.1,1376.3,714.9,1349.5,688.8z"/>
<path class="st0" d="M1342.5,699.9c-4.1-4.2-7.5-5.7-10.4-4.5c-6.6,2.7-7.1,18-7.1,41.1v3.2c0,21.7-13.6,46.9-22.6,62.6
	c1.4-0.3,2.8-0.5,4.2-0.8c9.1-16.1,21.6-40.4,21.6-61.8v-3.2c0-15,0-35.5,4.9-38c0.1,0,0.1-0.1,0.2-0.1c1.5-0.6,3.9,0.7,6.9,3.8
	c15.3,15.6,38.1,35.4,68.8,39.5c0.8-1,1.7-2,2.5-3C1380.7,735.2,1357.8,715.4,1342.5,699.9z"/>
<path class="st0" d="M1369.5,740.7c-13.3-13-20.9-17.7-25.5-15.8c-4,1.7-4.4,7.7-4.4,12.7c0.3,20.5-9,41.7-18.9,60.3
	c1.5-0.4,2.9-0.9,4.4-1.3c9.5-18.3,18.1-38.9,17.8-59c-0.1-7.1,1.3-9.2,2.4-9.6c2.1-0.9,7.6,1,22,15.1c8.6,8.5,18.4,12.3,27,13.8
	c1.1-1,2.1-1.9,3.1-2.9C1388.7,752.8,1378.3,749.4,1369.5,740.7L1369.5,740.7z"/>
<path class="st0" d="M1362.6,753.2c-2.2-1.6-4.3-2-6.2-1.2c-3.3,1.3-5.5,6-6.8,14.3c-1.2,7.1-5.6,15.2-9.4,22.4c-0.6,1-1.1,2-1.6,3
	c1.6-0.7,3.2-1.3,4.8-2.1c3.9-7.2,8.2-15.4,9.4-22.8c1.6-9.5,3.9-11.5,4.9-11.9c0.3-0.1,1.2-0.5,3,0.8c0.9,0.7,1.9,1.5,3,2.3
	c4.1,3.2,9.2,7.3,16.6,10.1c1.1-0.8,2.1-1.5,3.1-2.3c-8-2.7-13.4-7-17.6-10.3C1364.6,754.7,1363.6,753.9,1362.6,753.2L1362.6,753.2z
	"/>
<path class="st0" d="M1364.9,770.1c-0.9,0-1.6,0.7-1.6,1.6c0,0.1-0.1,3.8-1.3,8.4c1.3-0.7,2.6-1.5,3.8-2.3c0.6-3.5,0.7-6,0.7-6.2
	C1366.5,770.8,1365.8,770.1,1364.9,770.1z M1382.3,610c-16.3-1.6-28.6-7.1-37.7-11.1c-7.3-3.2-12.5-5.5-16.4-4.3
	c-3.4,1-7.7,4.3-8.7,10.2c-1.1,6.4,1.6,16.8,20.3,30.3c26.8,19.4,64.5,43.3,101.4,45.3c0.3-1,0.5-2,0.8-3
	c-19.4-1-51.5-9.6-100.3-44.9c-18.2-13.2-19.7-22.6-19-27.1c0.7-4.2,3.7-6.8,6.4-7.7c2.8-0.8,7.8,1.4,14.1,4.2
	c9.2,4.1,21.9,9.7,38.7,11.3c20.1,2,39.1-3.1,54.4-7.3c3.7-1,7.1-1.9,10.2-2.6c-0.1-1.1-0.2-2.2-0.4-3.3c-3.3,0.8-6.9,1.7-10.7,2.8
	C1420.6,606.9,1401.8,611.9,1382.3,610L1382.3,610z M1265.9,566.7c-6.8,0.7-13.9,2.7-19,5.3c-5.6,2.9-8.7,6.5-8.9,10.5
	c-0.3,4.4,2.9,8.9,9.3,13.4c8.6,6,13.2,15.5,17.2,23.9c3.9,8.1,7.7,14.9,13.7,17c3.4,1.2,7.5-0.3,12.4-1.7l-0.1-0.2
	c14.2-7.3,15.1-16.4,17.3-28.3l0.4-2.1c1-5.4,2.1-8.3,3-10.6c1.2-2.9,1.9-4.8,0.6-8.4C1308.3,575.9,1281.7,565,1265.9,566.7
	L1265.9,566.7z M1308.5,586c0.1,0.2,0.2,0.5,0.3,0.7c0.1,0.2,0.2,0.5,0.2,0.7c0.6,2,0.2,3-0.8,5.4c-0.9,2.3-2.2,5.6-3.3,11.3
	l-0.6,1.7c-2.2,11.4-3.8,19.5-15.9,25.7l-0.1,0c-4.4,1.2-7.1,2.8-9.7,1.9c-3.6-1.2-6.2-5.1-8.8-10c-0.9-1.7-1.7-3.5-2.6-5.4
	c-1-2.1-2.1-4.3-3.2-6.5c-3.5-6.8-8-13.5-14.9-18.4c-3.4-2.4-5.7-4.7-7-6.8c-0.7-1.3-1.1-2.5-1-3.7c0.2-3.5,4.1-6.1,7.2-7.8
	c4.7-2.4,11.4-4.3,17.9-5c7.1-0.8,16.8,1.1,26.1,4.9C1300.5,578.3,1306.7,582.5,1308.5,586L1308.5,586z"/>
<path class="st0" d="M1271.3,577l-0.3,0c-5.3,0.6-11.4,1.2-14.9,3c-2,1-3,2.4-3.1,4c-0.1,0.9,0.2,1.8,0.7,2.8
	c0.9,1.6,2.8,3.3,5.5,5.3c4.1,2.8,6.9,7.3,9.2,12c0.8,1.5,1.5,3.1,2.2,4.6c0.7,1.6,1.4,3.1,2.2,4.5c2.2,4.3,4.5,7.7,8,8.8
	c2.4,0.8,5.1,0.6,8.1-0.9l0,0c9.7-5,9.5-29.1,8.1-33c-0.1-0.2-0.2-0.4-0.3-0.6C1293.8,581.3,1281.2,576,1271.3,577L1271.3,577z
	 M1293.8,589.2c1.1,3.1,1,24.9-6.7,28.9c-2.1,1.1-3.8,1.3-5.3,0.8c-3.3-1.1-5.7-6.2-8.3-11.6c-3-6.3-6.4-13.5-12.5-17.8
	c-4.6-3.2-4.9-4.8-4.9-5.2c0-0.5,0.9-1.1,1.4-1.3c3-1.5,8.9-2.2,13.8-2.7l0.2,0C1281.6,579.2,1292.2,584.9,1293.8,589.2
	L1293.8,589.2z M1370.2,620.5c-21.8-7-23.6-2.9-24.2-1.6c-0.7,1.6-2.5,5.8,22.5,20.2c20.6,11.9,46.6,24.3,76.4,25.5
	c0.2-1,0.3-2.1,0.5-3.1c-19.4-0.8-43.8-7-75.3-25.2c-21.2-12.2-21.1-16-21.2-16c0.6-0.6,5.5-1.4,20.3,3.3c18.3,5.8,55,1.2,78.7-3.9
	c0-1.1-0.1-2.2-0.1-3.3c-7.6,1.7-16.8,3.3-26.3,4.6C1398.6,624,1380.4,623.8,1370.2,620.5L1370.2,620.5z"/>
<path class="st0" d="M1405,637c-0.3,0.6-0.3,1.3,0.1,1.9c1.6,2.3,20.3,7.4,42.1,7.7c0.1-1.1,0.2-2.1,0.3-3.2
	c-12.7-0.2-24.2-2-31.5-3.8c7.5,0,18.2-0.8,31.9-3.9c0-1.1,0.1-2.2,0.1-3.3c-19.1,4.5-32.3,4.3-39.2,3.7
	C1407.1,636,1405.6,635.9,1405,637L1405,637z"/>
</svg>
